<svg width="16" height="16" viewBox="0 0 16 16" fill="none" xmlns="http://www.w3.org/2000/svg">
<path fill-rule="evenodd" clip-rule="evenodd" d="M11.3966 0.751465H4.59998C2.2339 0.751465 0.75 2.42783 0.75 4.80019V11.1993C0.75 13.5716 2.22762 15.248 4.59998 15.248H11.3926C13.7689 15.248 15.2458 13.5716 15.2458 11.1993V4.80019C15.2489 2.42783 13.7713 0.751465 11.3966 0.751465Z" stroke="#777781" stroke-width="1.5" stroke-linecap="round" stroke-linejoin="round"/>
<path fill-rule="evenodd" clip-rule="evenodd" d="M6.9979 5.49212C6.9979 6.29338 6.34904 6.94224 5.54778 6.94224C4.74731 6.94224 4.09766 6.29338 4.09766 5.49212C4.09766 4.69086 4.74731 4.04199 5.54778 4.04199C6.34826 4.04278 6.99712 4.69164 6.9979 5.49212Z" stroke="#777781" stroke-width="1.5" stroke-linecap="round" stroke-linejoin="round"/>
<path d="M15.2485 10.3358C14.5234 9.5895 13.1291 8.08203 11.613 8.08203C10.0961 8.08203 9.22176 11.4073 7.76299 11.4073C6.30423 11.4073 4.97901 9.90372 3.81011 10.8676C2.64121 11.8307 1.53516 13.8 1.53516 13.8" stroke="#777781" stroke-width="1.5" stroke-linecap="round" stroke-linejoin="round"/>
</svg>
